<?xml version="1.0" standalone="no"?><!DOCTYPE svg PUBLIC "-//W3C//DTD SVG 1.1//EN" "http://www.w3.org/Graphics/SVG/1.1/DTD/svg11.dtd"><svg t="1501758921847" class="icon" style="" viewBox="0 0 1024 1024" version="1.1" xmlns="http://www.w3.org/2000/svg" p-id="10271" xmlns:xlink="http://www.w3.org/1999/xlink" width="200" height="200"><defs><style type="text/css"></style></defs><path d="M937.028 509.483c-0.368-74.695-18.489-143.512-54.368-207.799-3.919-7.103-6.857-14.328-5.389-22.653 2.204-13.102 11.755-22.897 24.489-25.347 12.367-2.327 24.859 3.308 31.716 15.184 15.184 26.082 27.43 53.389 37.225 81.919 92.206 268.291-63.796 556.909-338.944 626.707-260.576 66.124-527.519-95.757-588.992-357.435-60.491-257.76 94.898-515.398 351.435-580.418 125.39-31.716 245.146-14.328 358.046 48.246 11.512 6.367 17.388 16.408 16.408 29.387-0.981 12.489-7.837 21.429-19.715 25.838-9.675 3.674-18.734 1.716-27.552-3.308-30.612-17.388-62.939-30.612-96.982-40.042-228.984-63.063-468.131 78.735-522.499 310.046-53.022 225.922 82.411 450.376 306.863 508.542 230.699 59.756 468.621-86.817 518.336-319.476 6.489-29.754 9.796-60.002 9.919-89.39z" p-id="10272"></path></svg>