<?xml version="1.0" standalone="no"?><!DOCTYPE svg PUBLIC "-//W3C//DTD SVG 1.1//EN" "http://www.w3.org/Graphics/SVG/1.1/DTD/svg11.dtd"><svg t="1501758928155" class="icon" style="" viewBox="0 0 1024 1024" version="1.1" xmlns="http://www.w3.org/2000/svg" p-id="10392" xmlns:xlink="http://www.w3.org/1999/xlink" width="200" height="200"><defs><style type="text/css"></style></defs><path d="M931.315 421.023c-38.61-201.298-210.6-353.106-417.105-353.106-234.936 0-425.412 196.443-425.412 438.75 0 242.307 190.476 438.75 425.412 438.75 151.808 0 284.661-82.251 359.951-205.686-20.592-1.287-39.78-7.137-57.096-16.497-66.456 98.865-177.255 163.683-302.855 163.683-203.58 0-368.667-170.235-368.667-380.25s165.087-380.25 368.726-380.25c176.728 0 322.744 128.817 358.663 299.871-43.641 16.263-74.997 59.026-74.997 109.629 0 64.584 50.778 117 113.431 117s113.432-52.416 113.432-117c0-57.564-40.307-105.124-93.483-114.894z" p-id="10393"></path></svg>