<?xml version="1.0" standalone="no"?><!DOCTYPE svg PUBLIC "-//W3C//DTD SVG 1.1//EN" "http://www.w3.org/Graphics/SVG/1.1/DTD/svg11.dtd"><svg t="1501759367370" class="icon" style="" viewBox="0 0 1024 1024" version="1.1" xmlns="http://www.w3.org/2000/svg" p-id="14412" xmlns:xlink="http://www.w3.org/1999/xlink" width="200" height="200"><defs><style type="text/css"></style></defs><path d="M134 297.4c22 11.6 327.6 178.2 339 184.2s23 8.8 41 8.8c18 0 29.6-2.8 41-8.8 11.4-6 317-172.6 339-184.2 8.2-4.2 22-11.8 25-20.4 5.2-15.2-0.4-21-22.6-21h-764.8c-22.2 0-27.8 6-22.6 21 3 8.8 16.8 16.2 25 20.4z" p-id="14413"></path><path d="M911.4 306.4c-16.4 8.4-163.6 113.2-261 176.2l164.4 185c4 4 5.8 8.8 3.6 11.2-2.4 2.2-7.6 1-11.8-2.8l-197.2-166.4c-29.8 19.2-50.8 32.4-54.4 34.4-15.4 7.8-26.2 8.8-41 8.8-14.8 0-25.6-1-41-8.8-3.8-2-24.6-15.2-54.4-34.4l-197.2 166.4c-4 4-9.4 5.2-11.8 2.8-2.4-2.2-0.6-7.2 3.4-11.2l164.2-185c-97.4-63-246.2-167.8-262.6-176.2-17.6-9-18.6 1.6-18.6 9.8 0 8.2 0 410 0 410 0 18.6 27.4 41.8 47 41.8h742c19.6 0 43-23.4 43-41.8 0 0 0-402 0-410 0-8.4 1.2-18.8-16.6-9.8z" p-id="14414"></path></svg>