<?xml version="1.0" standalone="no"?><!DOCTYPE svg PUBLIC "-//W3C//DTD SVG 1.1//EN" "http://www.w3.org/Graphics/SVG/1.1/DTD/svg11.dtd"><svg t="1501759320513" class="icon" style="" viewBox="0 0 1024 1024" version="1.1" xmlns="http://www.w3.org/2000/svg" p-id="13797" xmlns:xlink="http://www.w3.org/1999/xlink" width="200" height="200"><defs><style type="text/css"></style></defs><path d="M563.555 513.42l301.829-300.265c14.272-14.199 14.346-37.21 0.146-51.483-14.236-14.308-37.21-14.346-51.483-0.146l-301.903 300.301-299.281-300.191c-14.163-14.199-37.21-14.272-51.483-0.073-14.236 14.199-14.272 37.246-0.073 51.519l299.209 300.118-301.684 300.082c-14.272 14.199-14.346 37.21-0.146 51.483 7.1 7.136 16.457 10.74 25.814 10.74 9.284 0 18.569-3.532 25.668-10.595l301.757-300.155 302.012 302.922c7.1 7.136 16.42 10.704 25.777 10.704 9.321 0 18.605-3.568 25.705-10.631 14.236-14.199 14.272-37.21 0.073-51.483l-301.939-302.849z" p-id="13798"></path></svg>