<?xml version="1.0" standalone="no"?><!DOCTYPE svg PUBLIC "-//W3C//DTD SVG 1.1//EN" "http://www.w3.org/Graphics/SVG/1.1/DTD/svg11.dtd"><svg t="1501758835429" class="icon" style="" viewBox="0 0 1024 1024" version="1.1" xmlns="http://www.w3.org/2000/svg" p-id="9518" xmlns:xlink="http://www.w3.org/1999/xlink" width="200" height="200"><defs><style type="text/css"></style></defs><path d="M391.655 221.964h534.805c22.879 0 41.425-18.547 41.425-41.425s-18.547-41.425-41.425-41.425h-534.805c-22.879 0-41.425 18.547-41.425 41.425s18.547 41.425 41.425 41.425zM391.645 552.351h532.843c22.879 0 41.425-18.547 41.425-41.425s-18.547-41.425-41.425-41.425h-532.843c-22.879 0-41.425 18.547-41.425 41.425s18.547 41.425 41.425 41.425zM926.461 801.721h-534.805c-22.879 0-41.425 18.547-41.425 41.425s18.547 41.425 41.425 41.425h534.805c22.879 0 41.425-18.547 41.425-41.425s-18.547-41.425-41.425-41.425z" fill="" p-id="9519"></path><path d="M97.795 180.537c0 45.756 37.093 82.851 82.851 82.851 45.756 0 82.851-37.093 82.851-82.851 0-45.756-37.093-82.851-82.851-82.851-45.756 0-82.851 37.093-82.851 82.851z" fill="" p-id="9520"></path><path d="M97.795 510.43c0 45.756 37.093 82.851 82.851 82.851 45.756 0 82.851-37.093 82.851-82.851 0-45.756-37.093-82.851-82.851-82.851-45.756 0-82.851 37.093-82.851 82.851z" fill="" p-id="9521"></path><path d="M97.795 842.91c0 45.756 37.093 82.851 82.851 82.851 45.756 0 82.851-37.093 82.851-82.851 0-45.756-37.093-82.851-82.851-82.851-45.756 0-82.851 37.093-82.851 82.851z" fill="" p-id="9522"></path></svg>