<?xml version="1.0" standalone="no"?><!DOCTYPE svg PUBLIC "-//W3C//DTD SVG 1.1//EN" "http://www.w3.org/Graphics/SVG/1.1/DTD/svg11.dtd"><svg t="1501758882873" class="icon" style="" viewBox="0 0 1024 1024" version="1.1" xmlns="http://www.w3.org/2000/svg" p-id="9774" xmlns:xlink="http://www.w3.org/1999/xlink" width="200" height="200"><defs><style type="text/css"></style></defs><path d="M870.126 204.75h-220.911c-3.341-73.516-64.189-132.298-138.515-132.298s-135.174 58.782-138.515 132.298h-221.511c-18.851 0-34.133 15.282-34.133 34.133s15.282 34.133 34.133 34.133h719.453c18.851 0 34.133-15.282 34.133-34.133s-15.282-34.133-34.133-34.133zM510.7 140.718c36.671 0 66.868 28.188 70.099 64.031h-140.197c3.231-35.843 33.427-64.031 70.098-64.031zM784.793 341.109c-18.851 0-34.133 15.282-34.133 34.133v510.051h-477.319v-510.051c0-18.851-15.282-34.133-34.133-34.133s-34.133 15.282-34.133 34.133v544.185c0 18.851 15.282 34.133 34.133 34.133h545.586c18.851 0 34.133-15.282 34.133-34.133v-544.185c0-18.851-15.282-34.133-34.133-34.133z" fill="" p-id="9775"></path><path d="M445.126 747.522v-303.567c0-18.851-15.282-34.133-34.133-34.133s-34.133 15.282-34.133 34.133v303.566c0 18.851 15.282 34.133 34.133 34.133s34.133-15.281 34.133-34.132zM649.429 747.522v-303.567c0-18.851-15.282-34.133-34.133-34.133s-34.133 15.282-34.133 34.133v303.566c0 18.851 15.282 34.133 34.133 34.133s34.133-15.281 34.133-34.132z" fill="" p-id="9776"></path></svg>