<?xml version="1.0" standalone="no"?><!DOCTYPE svg PUBLIC "-//W3C//DTD SVG 1.1//EN" "http://www.w3.org/Graphics/SVG/1.1/DTD/svg11.dtd"><svg t="1501759844444" class="icon" style="" viewBox="0 0 1024 1024" version="1.1" xmlns="http://www.w3.org/2000/svg" p-id="18952" xmlns:xlink="http://www.w3.org/1999/xlink" width="200" height="200"><defs><style type="text/css"></style></defs><path d="M682.668 256l0 469.332C682.668 819.208 605.876 896 512 896c-93.874 0-170.666-76.792-170.666-170.668L341.334 234.668C341.334 174.938 388.27 128 448 128c59.728 0 106.666 46.938 106.666 106.668l0 490.666c0 23.458-19.21 42.666-42.668 42.666-23.458 0-42.666-19.208-42.666-42.666L469.332 320l-64 0 0 405.334C405.334 785.062 452.27 832 512 832c59.73 0 106.668-46.938 106.668-106.666L618.668 234.668C618.668 140.802 541.876 64 448 64c-93.876 0-170.668 76.802-170.668 170.668l0 490.664C277.334 855.458 381.876 960 512 960c130.124 0 234.668-104.542 234.668-234.668L746.668 256 682.668 256z" p-id="18953"></path></svg>