<?xml version="1.0" standalone="no"?><!DOCTYPE svg PUBLIC "-//W3C//DTD SVG 1.1//EN" "http://www.w3.org/Graphics/SVG/1.1/DTD/svg11.dtd"><svg t="1501758986597" class="icon" style="" viewBox="0 0 1024 1024" version="1.1" xmlns="http://www.w3.org/2000/svg" p-id="11002" xmlns:xlink="http://www.w3.org/1999/xlink" width="200" height="200"><defs><style type="text/css"></style></defs><path d="M1001.812 263.965c-11.378-4.551-25.031 2.275-29.582 13.653l-40.96 116.053c-54.613-182.045-223.005-314.027-416.427-314.027-238.933 0-432.355 193.422-432.355 432.355s193.422 432.355 432.355 432.355c211.627 0 391.395-152.462 425.529-359.538 2.275-11.378-6.827-25.031-18.205-27.307-11.378-2.275-25.031 6.827-27.307 18.205-29.582 186.595-191.147 323.129-380.018 323.129-213.902 0-386.845-172.942-386.845-386.845s172.942-386.845 386.845-386.845c182.045 0 339.058 127.431 377.742 302.649l-116.053-50.062c-11.378-4.551-25.031 0-29.582 11.378s0 25.031 11.378 29.582l159.289 70.542c2.275 2.275 6.827 2.275 9.102 2.275 9.102 0 18.205-4.551 20.48-13.653v-2.275c2.275-2.275 2.275-4.551 4.551-6.827l63.715-177.493c2.275-11.378-2.275-22.755-13.653-27.307z" p-id="11003"></path></svg>