<?xml version="1.0" standalone="no"?><!DOCTYPE svg PUBLIC "-//W3C//DTD SVG 1.1//EN" "http://www.w3.org/Graphics/SVG/1.1/DTD/svg11.dtd"><svg t="1501759808230" class="icon" style="" viewBox="0 0 1024 1024" version="1.1" xmlns="http://www.w3.org/2000/svg" p-id="18341" xmlns:xlink="http://www.w3.org/1999/xlink" width="200" height="200"><defs><style type="text/css"></style></defs><path d="M810.666 160l-174.7 0C621.758 104.792 571.642 64 512 64s-109.758 40.792-123.966 96l-174.7 0C166.396 160 128 198.396 128 245.334l0 629.33C128 921.602 166.396 960 213.334 960l597.332 0C857.604 960 896 921.602 896 874.664L896 245.334C896 198.396 857.604 160 810.666 160zM512 160c23.458 0 42.666 19.198 42.666 42.666s-19.208 42.668-42.666 42.668-42.666-19.2-42.666-42.668S488.542 160 512 160zM816 880 208 880 208 240l80 0 0 144 448 0 0-144 80 0L816 880z" p-id="18342"></path></svg>