<?xml version="1.0" standalone="no"?><!DOCTYPE svg PUBLIC "-//W3C//DTD SVG 1.1//EN" "http://www.w3.org/Graphics/SVG/1.1/DTD/svg11.dtd"><svg t="1501758845463" class="icon" style="" viewBox="0 0 1024 1024" version="1.1" xmlns="http://www.w3.org/2000/svg" p-id="9647" xmlns:xlink="http://www.w3.org/1999/xlink" width="200" height="200"><defs><style type="text/css"></style></defs><path d="M927.656 219.877H96.004c-17.673 0-32 14.327-32 32v520c0 17.673 14.327 32 32 32h831.652c17.673 0 32-14.327 32-32v-520c0-17.672-14.327-32-32-32z m-32 520H128.004v-456h767.652v456z" fill="" p-id="9648"></path><path d="M254.241 633.451c0.053-0.146 5.452-14.838 18.675-28.833 16.321-17.274 37.47-26.033 62.86-26.033 25.637 0 47.345 8.914 64.52 26.494 13.891 14.219 19.853 29.107 19.912 29.256l-0.098-0.258 59.956-22.389c-0.958-2.566-9.986-25.738-31.587-48.82-14.717-15.726-31.768-27.758-50.632-35.88 21.708-17.923 35.567-45.031 35.567-75.315 0-53.838-43.8-97.638-97.638-97.638s-97.638 43.8-97.638 97.638c0 30.334 13.905 57.48 35.676 75.402-18.733 8.194-35.523 20.342-49.85 36.224-21.018 23.298-29.346 46.698-30.226 49.29l60.599 20.586-0.096 0.276z m81.535-212.139c16.742 0 30.362 13.621 30.362 30.362s-13.621 30.362-30.362 30.362-30.362-13.621-30.362-30.362 13.62-30.362 30.362-30.362zM557.112 448h243.257c17.673 0 32-14.327 32-32s-14.327-32-32-32H557.112c-17.673 0-32 14.327-32 32s14.327 32 32 32zM557.112 576.838h146.257c17.673 0 32-14.327 32-32s-14.327-32-32-32H557.112c-17.673 0-32 14.327-32 32s14.327 32 32 32z" fill="" p-id="9649"></path></svg>