<?xml version="1.0" standalone="no"?><!DOCTYPE svg PUBLIC "-//W3C//DTD SVG 1.1//EN" "http://www.w3.org/Graphics/SVG/1.1/DTD/svg11.dtd"><svg t="1501759584825" class="icon" style="" viewBox="0 0 1024 1024" version="1.1" xmlns="http://www.w3.org/2000/svg" p-id="16621" xmlns:xlink="http://www.w3.org/1999/xlink" width="200" height="200"><defs><style type="text/css"></style></defs><path d="M924.634 75.093c-4.951 0-10.003 3.116-20.88 7.298s-246.117 94.652-246.117 94.652l-291.271-101.95-274.275 92.23c-9.722 2.442-16.996 12.135-16.996 24.271v733.038c0 14.555 9.718 24.273 24.271 24.273 4.16 0 14.802-5.302 20.678-7.553s246.322-94.399 246.322-94.399l291.271 101.952 274.275-92.23c9.718-2.442 16.996-12.138 16.996-24.273v-733.038c0-14.553-9.718-24.271-24.273-24.271zM657.635 851.815l-291.271-101.95v-577.684l291.271 101.952v577.682z" p-id="16622"></path></svg>