<?xml version="1.0" standalone="no"?><!DOCTYPE svg PUBLIC "-//W3C//DTD SVG 1.1//EN" "http://www.w3.org/Graphics/SVG/1.1/DTD/svg11.dtd"><svg t="1501759731507" class="icon" style="" viewBox="0 0 1024 1024" version="1.1" xmlns="http://www.w3.org/2000/svg" p-id="17361" xmlns:xlink="http://www.w3.org/1999/xlink" width="200" height="200"><defs><style type="text/css"></style></defs><path d="M512 68.267c-245.069 0-443.733 198.667-443.733 443.733s198.665 443.733 443.733 443.733c245.067 0 443.733-198.667 443.733-443.733 0-245.067-198.667-443.733-443.733-443.733zM466.029 889.598c-84.19-10.082-162.086-47.77-222.974-108.655-71.838-71.838-111.398-167.349-111.398-268.943 0-91.456 32.077-177.971 90.882-246.739 1.515 18.17 5.254 37.649 4.297 51.573-3.499 50.763-8.508 82.532 21.205 125.359 11.575 16.681 14.419 40.593 20.053 59.9 5.51 18.889 27.524 28.796 42.707 40.433 30.633 23.486 59.938 50.784 92.42 71.454 21.438 13.643 34.829 20.429 28.55 46.59-5.050 21.039-6.46 33.999-17.344 52.742-3.322 5.719 12.538 42.492 17.815 47.77 15.996 15.994 31.868 30.667 49.303 45.067 27.031 22.334-2.626 51.354-15.518 83.45zM780.943 780.943c-54.684 54.684-123.091 90.637-197.453 104.706 10.539-26.061 29.303-49.216 46.709-62.639 15.14-11.682 34.103-34.153 42.012-51.951 7.902-17.775 18.37-33.184 28.964-49.53 15.072-23.251-37.161-58.317-54.086-65.666-38.089-16.535-66.761-38.848-100.61-62.667-24.117-16.969-73.082 8.862-100.309-3.023-37.293-16.284-68.017-44.578-100.433-68.99-33.451-25.193-31.834-54.562-31.834-91.727 26.202 0.966 63.475-7.251 80.87 13.82 5.489 6.65 24.363 36.356 36.996 25.801 10.321-8.625-7.648-43.198-11.119-51.326-10.677-24.992 24.329-34.739 42.246-51.686 23.381-22.11 73.536-56.785 69.572-72.634s-50.185-60.751-77.331-53.745c-4.068 1.050-39.887 38.607-46.807 44.499 0.183-12.258 0.367-24.514 0.555-36.772 0.117-7.74-14.438-15.684-13.762-20.676 1.707-12.617 36.826-35.514 45.562-45.562-6.121-3.825-27.006-21.764-33.327-19.132-15.305 6.379-32.589 10.773-47.893 17.15 0-5.308-0.644-10.293-1.412-15.217 30.669-13.579 63.119-23.021 96.661-28.058l30.046 12.075 21.214 25.175 21.171 21.83 18.507 5.963 29.395-27.723-7.58-19.791v-17.79c58.133 8.444 113.033 30.131 161.114 63.573-8.602 0.77-18.054 2.035-28.719 3.392-4.405-2.603-10.057-3.785-14.859-5.596 13.933 29.956 28.465 59.499 43.23 89.058 15.772 31.575 50.758 65.444 56.902 98.775 7.241 39.287 2.217 74.974 6.178 121.197 3.814 44.512 50.185 95.087 50.185 95.087s21.412 7.294 39.219 4.753c-16.599 65.67-50.63 125.897-99.774 175.044z" p-id="17362"></path></svg>