<?xml version="1.0" standalone="no"?><!DOCTYPE svg PUBLIC "-//W3C//DTD SVG 1.1//EN" "http://www.w3.org/Graphics/SVG/1.1/DTD/svg11.dtd"><svg t="1501759782913" class="icon" style="" viewBox="0 0 1024 1024" version="1.1" xmlns="http://www.w3.org/2000/svg" p-id="18093" xmlns:xlink="http://www.w3.org/1999/xlink" width="200" height="200"><defs><style type="text/css"></style></defs><path d="M478.416 687.874c-35.56 20.206-76.684 31.752-120.51 31.752-43.818 0-84.934-11.542-120.492-31.74C143.088 716.662 85.286 812 64 896l587.824 0C630.546 812 572.75 716.634 478.416 687.874z" p-id="18094"></path><path d="M357.906 240.07c-116.958 0-211.772 94.788-211.772 211.716 0 116.928 94.814 211.714 211.772 211.714 116.958 0 211.772-94.788 211.772-211.714C569.678 334.858 474.862 240.07 357.906 240.07zM357.906 613.046c-67.342 0-124.89-45.026-147.994-101.046L505.9 512C482.792 568.022 425.248 613.046 357.906 613.046z" p-id="18095"></path><path d="M645.204 768 960 768c-21.276-84-79.074-163.382-173.406-192.144-35.562 20.208-76.686 31.746-120.512 31.746-29.646 0-58.048-5.308-84.336-14.98-14.89 24.94-33.854 51.184-55.948 69.812C578.49 682.708 618.292 728 645.204 768z" p-id="18096"></path><path d="M613.09 400l200.986 0c-23.108 56-80.654 100.586-147.994 100.586-17.75 0-34.808-3.384-50.75-9.02-2.676 17.418-7.086 34.14-13.04 50.236 20.132 6.348 41.558 9.724 63.79 9.724 116.958 0 211.772-94.82 211.772-211.744 0-116.93-94.814-211.732-211.772-211.732-74.98 0-140.854 39.406-178.486 98.18C551.214 262.766 597.922 326 613.09 400z" p-id="18097"></path></svg>