<?xml version="1.0" standalone="no"?><!DOCTYPE svg PUBLIC "-//W3C//DTD SVG 1.1//EN" "http://www.w3.org/Graphics/SVG/1.1/DTD/svg11.dtd"><svg t="1501759181682" class="icon" style="" viewBox="0 0 1024 1024" version="1.1" xmlns="http://www.w3.org/2000/svg" p-id="13289" xmlns:xlink="http://www.w3.org/1999/xlink" width="200" height="200"><defs><style type="text/css"></style></defs><path d="M819.2 354.134c0-170.667-136.533-307.2-307.2-307.2s-307.2 136.533-307.2 307.2c0 116.053 61.44 215.040 157.013 266.24-129.707 51.2-228.693 163.84-256 307.2-3.413 17.067 6.827 37.547 27.307 40.96h6.827c17.067 0 30.72-10.24 34.133-27.307 30.72-160.427 170.667-276.48 334.507-279.893h6.827c167.253 0 303.787-136.533 303.787-307.2zM273.067 354.134c0-133.12 105.813-238.933 238.933-238.933s238.933 105.813 238.933 238.933c0 129.707-105.813 235.52-235.52 238.933h-10.24c-129.707-3.413-232.107-109.227-232.107-238.933zM737.28 664.747c-17.067-10.24-37.547-6.827-47.787 10.24s-6.827 37.547 10.24 47.787c78.507 54.613 133.12 129.707 150.187 218.453 3.413 17.067 17.067 27.307 34.133 27.307h6.827c17.067-3.413 30.72-20.48 27.307-40.96-20.48-105.813-85.333-197.973-180.907-262.827z" fill="#666666" p-id="13290"></path></svg>