<?xml version="1.0" standalone="no"?><!DOCTYPE svg PUBLIC "-//W3C//DTD SVG 1.1//EN" "http://www.w3.org/Graphics/SVG/1.1/DTD/svg11.dtd"><svg t="1501759037591" class="icon" style="" viewBox="0 0 1024 1024" version="1.1" xmlns="http://www.w3.org/2000/svg" p-id="11506" xmlns:xlink="http://www.w3.org/1999/xlink" width="200" height="200"><defs><style type="text/css"></style></defs><path d="M623.502 625.778c113.778-45.511 193.422-157.013 193.422-284.445 0-170.667-136.533-307.2-307.2-307.2-168.391 0-307.2 136.533-307.2 307.2 0 129.707 79.645 238.933 193.422 284.445-143.36 40.96-257.138 161.565-286.72 314.027-2.275 6.827 0 13.653 4.551 18.205 2.275 4.551 9.102 9.102 15.929 9.102h760.035c6.827 0 13.653-2.275 18.205-9.102 4.551-4.551 6.827-11.378 4.551-18.205-31.858-152.462-145.635-273.067-288.995-314.027z" fill="#666666" p-id="11507"></path></svg>