<?xml version="1.0" standalone="no"?><!DOCTYPE svg PUBLIC "-//W3C//DTD SVG 1.1//EN" "http://www.w3.org/Graphics/SVG/1.1/DTD/svg11.dtd"><svg t="1501759014757" class="icon" style="" viewBox="0 0 1024 1024" version="1.1" xmlns="http://www.w3.org/2000/svg" p-id="11254" xmlns:xlink="http://www.w3.org/1999/xlink" width="200" height="200"><defs><style type="text/css"></style></defs><path d="M928 490.666667h-832c-12.8 0-21.333333 8.533333-21.333333 21.333333s8.533333 21.333333 21.333333 21.333333h832c12.8 0 21.333333-8.533333 21.333333-21.333333s-10.666667-21.333333-21.333333-21.333333zM896 642.133333c-12.8 0-21.333333 8.533333-21.333333 21.333334V810.666667c0 36.266667-29.866667 64-64 64h-147.2c-12.8 0-21.333333 8.533333-21.333334 21.333333s8.533333 21.333333 21.333334 21.333333H810.666667c59.733333 0 106.666667-49.066667 106.666666-106.666666v-147.2c0-10.666667-10.666667-21.333333-21.333333-21.333334zM360.533333 876.8H213.333333c-36.266667 0-64-29.866667-64-64v-149.333333c0-12.8-8.533333-21.333333-21.333333-21.333334s-21.333333 8.533333-21.333333 21.333334v149.333333c0 59.733333 49.066667 106.666667 106.666666 106.666667h147.2c12.8 0 21.333333-8.533333 21.333334-21.333334s-10.666667-21.333333-21.333334-21.333333zM128 384c12.8 0 21.333333-8.533333 21.333333-21.333333v-149.333334c0-36.266667 29.866667-64 64-64h149.333334c12.8 0 21.333333-8.533333 21.333333-21.333333s-8.533333-21.333333-21.333333-21.333333h-149.333334c-59.733333 0-106.666667 49.066667-106.666666 106.666666v149.333334c0 12.8 8.533333 21.333333 21.333333 21.333333zM663.466667 149.333333H810.666667c36.266667 0 64 29.866667 64 64v149.333334c0 12.8 8.533333 21.333333 21.333333 21.333333s21.333333-8.533333 21.333333-21.333333v-149.333334c0-59.733333-49.066667-106.666667-106.666666-106.666666h-147.2c-12.8 0-21.333333 8.533333-21.333334 21.333333s8.533333 21.333333 21.333334 21.333333z" p-id="11255"></path></svg>