<?xml version="1.0" standalone="no"?><!DOCTYPE svg PUBLIC "-//W3C//DTD SVG 1.1//EN" "http://www.w3.org/Graphics/SVG/1.1/DTD/svg11.dtd"><svg t="1501759664210" class="icon" style="" viewBox="0 0 1024 1024" version="1.1" xmlns="http://www.w3.org/2000/svg" p-id="16987" xmlns:xlink="http://www.w3.org/1999/xlink" width="200" height="200"><defs><style type="text/css"></style></defs><path d="M514.133 222.871c15.11 0 51.010 9.555 51.010 9.555 97.257 22.287 165.713 111.87 165.713 213.013v272.239l36.499 36.666h-510.711l36.499-36.666v-272.239c0-101.141 68.457-190.726 165.713-213.013 0 0 38.492-9.555 51.010-9.555M512 68.267c-37.551 0-66.259 28.838-66.259 66.56v31.059c-125.899 28.849-220.864 144.215-220.864 279.554v244.053l-88.343 88.747v44.373h750.933v-44.373l-88.343-88.747v-244.053c0-135.339-94.967-250.705-220.864-279.554v-31.059c0-37.722-28.708-66.56-66.259-66.56v0zM600.343 866.987h-176.689c0 48.813 39.75 88.747 88.346 88.747s88.343-39.934 88.343-88.747v0z" p-id="16988"></path></svg>