<?xml version="1.0" standalone="no"?><!DOCTYPE svg PUBLIC "-//W3C//DTD SVG 1.1//EN" "http://www.w3.org/Graphics/SVG/1.1/DTD/svg11.dtd"><svg t="1501758827955" class="icon" style="" viewBox="0 0 1024 1024" version="1.1" xmlns="http://www.w3.org/2000/svg" p-id="9391" xmlns:xlink="http://www.w3.org/1999/xlink" width="200" height="200"><defs><style type="text/css"></style></defs><path d="M783.859 735.908h-681.847c-21.449 0-38.836-17.388-38.836-38.836v-496.268c0-21.449 17.388-38.836 38.836-38.836h190.799c9.661 0 18.975 3.601 26.124 10.099l57.705 52.455h407.221c21.449 0 38.836 17.388 38.836 38.836v433.714c0 21.449-17.388 38.836-38.836 38.836zM140.848 658.235h604.175v-356.042h-383.399c-10.074 0-19.253-3.837-26.156-10.126l-57.673-52.428h-136.948v418.595z" fill="" p-id="9392"></path><path d="M926.066 887.123h-650.106c-21.449 0-38.836-17.388-38.836-38.836s17.388-38.836 38.836-38.836h611.27v-416.137c0-21.449 17.388-38.836 38.836-38.836s38.836 17.388 38.836 38.836v454.973c0 21.449-17.388 38.836-38.836 38.836z" fill="" p-id="9393"></path></svg>