<?xml version="1.0" standalone="no"?><!DOCTYPE svg PUBLIC "-//W3C//DTD SVG 1.1//EN" "http://www.w3.org/Graphics/SVG/1.1/DTD/svg11.dtd"><svg t="1501759382038" class="icon" style="" viewBox="0 0 1024 1024" version="1.1" xmlns="http://www.w3.org/2000/svg" p-id="14657" xmlns:xlink="http://www.w3.org/1999/xlink" width="200" height="200"><defs><style type="text/css"></style></defs><path d="M838.087 313.799c-1.593-6.599-4.551-11.378-7.965-15.474l-190.464-208.669c-4.323-4.779-9.33-7.054-15.019-10.013-6.599-3.413-13.881-3.641-21.39-3.641h-363.861c-28.217 0-53.931 21.845-53.931 52.11v762.766c0 30.493 25.714 58.937 53.931 58.937h553.187c28.217 0 48.242-28.445 48.242-58.937v-555.463c0-8.192-0.91-14.109-2.731-21.618zM624.64 182.045l131.982 144.498h-131.982v-144.498zM258.275 877.227v-728.178h293.547v185.913c0 33.678 30.493 64.398 63.943 64.398h152.235v477.867h-509.725z" p-id="14658"></path></svg>