<?xml version="1.0" standalone="no"?><!DOCTYPE svg PUBLIC "-//W3C//DTD SVG 1.1//EN" "http://www.w3.org/Graphics/SVG/1.1/DTD/svg11.dtd"><svg t="1501759079013" class="icon" style="" viewBox="0 0 1024 1024" version="1.1" xmlns="http://www.w3.org/2000/svg" p-id="12010" xmlns:xlink="http://www.w3.org/1999/xlink" width="200" height="200"><defs><style type="text/css"></style></defs><path d="M911.599 283.068l-204.766-204.766c-3.14-3.14-6.861-5.666-11.025-7.373-4.096-1.741-8.567-2.662-13.141-2.662h-477.867c-56.457 0-102.4 45.943-102.4 102.4v682.667c0 56.457 45.943 102.4 102.4 102.4h614.4c56.457 0 102.4-45.943 102.4-102.4v-546.133c0-9.045-3.584-17.749-10.001-24.132zM716.8 184.798l122.402 122.402h-122.402v-122.402zM819.2 887.467h-614.4c-18.807 0-34.133-15.292-34.133-34.133v-682.667c0-18.807 15.326-34.133 34.133-34.133h443.733v204.8c0 18.842 15.258 34.133 34.133 34.133h170.667v477.867c0 18.842-15.292 34.133-34.133 34.133z" p-id="12011"></path><path d="M273.067 341.333h204.8c18.842 0 34.133-15.292 34.133-34.133s-15.292-34.133-34.133-34.133h-204.8c-18.842 0-34.133 15.292-34.133 34.133s15.292 34.133 34.133 34.133z" p-id="12012"></path><path d="M614.4 477.867h-341.333c-18.842 0-34.133 15.292-34.133 34.133s15.292 34.133 34.133 34.133h341.333c18.876 0 34.133-15.292 34.133-34.133s-15.258-34.133-34.133-34.133z" p-id="12013"></path><path d="M614.4 682.667h-341.333c-18.842 0-34.133 15.258-34.133 34.133s15.292 34.133 34.133 34.133h341.333c18.876 0 34.133-15.258 34.133-34.133s-15.258-34.133-34.133-34.133z" p-id="12014"></path></svg>