<?xml version="1.0" standalone="no"?><!DOCTYPE svg PUBLIC "-//W3C//DTD SVG 1.1//EN" "http://www.w3.org/Graphics/SVG/1.1/DTD/svg11.dtd"><svg t="1501759360359" class="icon" style="" viewBox="0 0 1024 1024" version="1.1" xmlns="http://www.w3.org/2000/svg" p-id="14288" xmlns:xlink="http://www.w3.org/1999/xlink" width="200" height="200"><defs><style type="text/css"></style></defs><path d="M768.001 263.112c0 70.692 57.308 128 128 128s128-57.308 128-128c0-70.692-57.308-128-128-128-70.692 0-128 57.308-128 128z" p-id="14289"></path><path d="M482.001 263.112h-382.402c-22.2 0-27.796 6-22.598 21 3 8.8 16.8 16.2 25 20.4 22 11.6 327.598 178.2 339 184.2 11.398 6 23 8.8 41 8.8s29.598-2.8 41-8.8c7.58-3.99 145.25-78.994 243.118-132.214-18.93-26.284-30.118-58.52-30.118-93.386h-254z" p-id="14290"></path><path d="M618.399 489.712l164.402 185c4 4 5.796 8.8 3.598 11.202-2.398 2.2-7.598 1-11.8-2.8l-197.2-166.4c-29.8 19.202-50.8 32.4-54.398 34.4-15.402 7.8-26.2 8.8-41 8.8s-25.602-1-41-8.8c-3.8-2-24.602-15.2-54.402-34.4l-197.2 166.4c-4 4-9.398 5.2-11.8 2.8-2.398-2.202-0.598-7.202 3.402-11.202l164.2-185c-97.4-63-246.2-167.8-262.602-176.2-17.598-9-18.598 1.6-18.598 9.8 0 8.202 0 410 0 410 0 18.6 27.398 41.8 47 41.8h742c19.598 0 43-23.4 43-41.8 0 0 0-188.796 0-310.2-43.452 0-82.832-17.346-111.664-45.458-52.002 35.804-115.616 79.508-165.938 112.058z" p-id="14291"></path></svg>