<?xml version="1.0" standalone="no"?><!DOCTYPE svg PUBLIC "-//W3C//DTD SVG 1.1//EN" "http://www.w3.org/Graphics/SVG/1.1/DTD/svg11.dtd"><svg t="1501759394567" class="icon" style="" viewBox="0 0 1024 1024" version="1.1" xmlns="http://www.w3.org/2000/svg" p-id="14779" xmlns:xlink="http://www.w3.org/1999/xlink" width="200" height="200"><defs><style type="text/css"></style></defs><path d="M934.602 336.168c-3.61 0-7.032 0.658-10.14 1.924l-4.562 2.3-342.95 177.876-7.776 3.992c0 0-0.104 0.046-0.104 0.094-15.12 9.336-25.07 25.012-25.07 42.85l0 371.708c0 12.764 11.298 23.088 25.38 23.088 4.356 0 8.502-1.026 12.13-2.808 0.31-0.19 0.726-0.376 1.038-0.564l349.462-185.388 0.518-0.282c16.482-9.008 27.47-25.484 27.47-44.21L959.998 359.164C960 346.446 948.598 336.168 934.602 336.168z" p-id="14780"></path><path d="M908.546 237.042l-363.4-163.462c0 0-21.318-9.58-33.154-9.58s-33.052 9.58-33.052 9.58L115.228 237.042c0 0-15.978 6.584-15.978 18.958 0 13.124 16.6 23 16.6 23l365.164 192.742 5.804 2.958c7.568 3.374 16.154 5.298 25.174 5.298 9.122 0 17.83-1.926 25.484-5.392l5.078-2.63 365.786-193.072c0 0 15.016-8.072 15.016-22.906C923.356 243 908.546 237.042 908.546 237.042z" p-id="14781"></path><path d="M454.932 522.356l-7.984-4.086L104.084 340.394l-4.56-2.3c-2.99-1.268-6.516-1.924-10.142-1.924-13.994 0-25.38 10.276-25.38 22.994l0 367.584c0 18.776 10.97 35.204 27.454 44.21l0.416 0.282 349.478 185.388 0 0c3.836 2.16 8.398 3.374 13.272 3.374 13.978 0 25.38-10.324 25.38-23.088L480.002 565.206C480 547.368 470.048 531.692 454.932 522.356z" p-id="14782"></path></svg>