<?xml version="1.0" standalone="no"?><!DOCTYPE svg PUBLIC "-//W3C//DTD SVG 1.1//EN" "http://www.w3.org/Graphics/SVG/1.1/DTD/svg11.dtd"><svg t="1501758786992" class="icon" style="" viewBox="0 0 1024 1024" version="1.1" xmlns="http://www.w3.org/2000/svg" p-id="8889" xmlns:xlink="http://www.w3.org/1999/xlink" width="200" height="200"><defs><style type="text/css"></style></defs><path d="M942.046988 343.495238 81.951989 343.495238c-12.715603 0-23.024389-10.308787-23.024389-23.024389s10.308787-23.024389 23.024389-23.024389l860.095 0c12.716626 0 23.024389 10.308787 23.024389 23.024389S954.763614 343.495238 942.046988 343.495238z" fill="#2c2c2c" p-id="8890"></path><path d="M322.005296 258.560824c-12.715603 0-23.024389-10.308787-23.024389-23.024389L298.980907 88.152712c0-12.715603 10.308787-23.024389 23.024389-23.024389s23.024389 10.308787 23.024389 23.024389l0 147.383722C345.029686 248.252037 334.720899 258.560824 322.005296 258.560824z" fill="#2c2c2c" p-id="8891"></path><path d="M702.675202 258.560824c-12.716626 0-23.024389-10.308787-23.024389-23.024389L679.650813 88.152712c0-12.715603 10.307763-23.024389 23.024389-23.024389s23.024389 10.308787 23.024389 23.024389l0 147.383722C725.699592 248.252037 715.391828 258.560824 702.675202 258.560824z" fill="#2c2c2c" p-id="8892"></path><path d="M942.046988 958.932052 81.951989 958.932052c-12.715603 0-23.024389-10.307763-23.024389-23.024389L58.927599 131.656529c0-12.715603 10.308787-23.024389 23.024389-23.024389l173.880189 0c12.715603 0 23.024389 10.308787 23.024389 23.024389s-10.308787 23.024389-23.024389 23.024389l-150.8558 0 0 758.202355 814.046221 0L919.022599 154.680918l-150.8558 0c-12.716626 0-23.024389-10.308787-23.024389-23.024389s10.307763-23.024389 23.024389-23.024389l173.880189 0c12.716626 0 23.024389 10.308787 23.024389 23.024389l0 804.251134C965.071378 948.624289 954.763614 958.932052 942.046988 958.932052z" fill="#2c2c2c" p-id="8893"></path><path d="M619.7874 154.680918 404.211577 154.680918c-12.715603 0-23.024389-10.308787-23.024389-23.024389s10.308787-23.024389 23.024389-23.024389l215.575824 0c12.716626 0 23.024389 10.308787 23.024389 23.024389S632.504026 154.680918 619.7874 154.680918z" fill="#2c2c2c" p-id="8894"></path><path d="M354.928127 534.036899l-59.338457 0 0-57.416687 25.705452 0c5.285377 0.161682 10.048867-0.119727 14.294564-0.841158 4.241604-0.720408 8.764618-2.559289 13.56904-5.52483 4.804423-2.962471 8.003278-6.284123 9.597589-9.970072l4.786003-9.609869 55.768141 0.239454 0 339.694679-64.383356 0L354.927103 534.036899z" fill="#2c2c2c" p-id="8895"></path><path d="M570.177516 560.462758c5.76633-2.720971 11.5695-5.123694 17.417695-7.207146 5.844102-2.079358 15.014972-3.201925 27.506471-3.362584 15.375176 0 29.467125 2.402723 42.280966 7.207146 12.811794 4.804423 24.02416 12.893658 33.633005 24.263613 9.609869 11.373025 16.373922 24.90625 20.300348 40.600697 3.922333 15.697517 5.885034 32.191166 5.885034 49.488111-0.160659 20.180622-3.044336 38.040385-8.647961 53.573149-5.607718 15.536858-13.895475 28.347628-24.864294 38.438451-10.971889 10.089799-23.14514 17.296945-36.515658 21.621437-13.374612 4.324492-27.590382 6.167466-42.642193 5.52483-25.306362-0.799202-44.845371-6.125511-58.617026-15.974833-13.775748-9.850345-24.065092-20.781302-30.870078-32.79287-6.809079-12.011568-10.773368-23.062252-11.891841-33.152051l-4.082992-26.906813L563.691801 681.783895c0.638543 5.607718 1.561565 11.410887 2.762927 17.417695s4.64274 12.413727 10.330276 19.218714c5.683443 6.809079 15.495926 10.372232 29.429263 10.69048 7.363711 0.322341 14.252609-1.081635 20.659529-4.203742 6.40385-3.123131 11.651364-7.807826 15.735379-14.053064 4.084015-6.246261 7.045463-13.412474 8.889461-21.50171 1.838881-8.085142 2.680039-16.776082 2.52245-26.066679-0.322341-11.050684-2.281973-20.37812-5.886057-27.987425-3.603061-7.605212-8.889461-13.533224-15.855106-17.777899-6.967692-4.241604-14.616906-6.444782-22.942525-6.606465-8.16803 0-15.615653 1.842974-22.341844 5.52483-6.726192 3.686972-12.011568 8.648984-15.855106 14.895245l-4.804423 7.207146-62.460564 0 13.452383-187.144284 183.538153 0 0 61.019749L575.222415 512.416486 570.177516 560.462758z" fill="#2c2c2c" p-id="8896"></path></svg>