<?xml version="1.0" standalone="no"?><!DOCTYPE svg PUBLIC "-//W3C//DTD SVG 1.1//EN" "http://www.w3.org/Graphics/SVG/1.1/DTD/svg11.dtd"><svg t="1501759513632" class="icon" style="" viewBox="0 0 1024 1024" version="1.1" xmlns="http://www.w3.org/2000/svg" p-id="15765" xmlns:xlink="http://www.w3.org/1999/xlink" width="200" height="200"><defs><style type="text/css"></style></defs><path d="M302 272c33.188 0 60-26.813 60-60v-60c0-33.188-26.813-60-60-60s-60 26.813-60 60v60c0 33.188 26.813 60 60 60z" p-id="15766"></path><path d="M722 272c33.187 0 60-26.813 60-60v-60c0-33.188-26.813-60-60-60s-60 26.813-60 60v60c0 33.188 26.813 60 60 60z" p-id="15767"></path><path d="M917 152h-105v76.313c0 42.187-43.5 73.687-88.5 73.687s-91.5-31.5-91.5-73.687v-76.313h-240v76.313c0 42.187-45 73.687-90 73.687s-90-31.5-90-73.687v-76.313h-105c-8.25 0-15 6.75-15 15v750c0 8.25 6.75 15 15 15h810c8.25 0 15-6.75 15-15v-750c0-8.25-6.75-15-15-15zM842 842h-660v-480h660v480z" p-id="15768"></path></svg>