<?xml version="1.0" standalone="no"?><!DOCTYPE svg PUBLIC "-//W3C//DTD SVG 1.1//EN" "http://www.w3.org/Graphics/SVG/1.1/DTD/svg11.dtd"><svg t="1501759327183" class="icon" style="" viewBox="0 0 1024 1024" version="1.1" xmlns="http://www.w3.org/2000/svg" p-id="13923" xmlns:xlink="http://www.w3.org/1999/xlink" width="200" height="200"><defs><style type="text/css"></style></defs><path d="M934.297 262.621c-13.722-12.868-35.362-12.254-48.23 1.502l-455.202 484.659-248.661-245.009c-13.449-13.244-35.055-13.107-48.299 0.341-13.244 13.414-13.073 35.055 0.375 48.265l273.579 269.517c0.102 0.102 0.239 0.137 0.341 0.239s0.137 0.239 0.239 0.341c2.15 2.048 4.745 3.209 7.236 4.574 1.229 0.717 2.287 1.775 3.584 2.287 4.028 1.57 8.294 2.389 12.527 2.389 4.471 0 8.943-0.887 13.107-2.662 1.399-0.58 2.492-1.775 3.789-2.526 2.56-1.502 5.222-2.765 7.407-4.983 0.102-0.102 0.137-0.273 0.239-0.375 0.068-0.102 0.205-0.137 0.307-0.239l479.13-510.089c12.971-13.687 12.254-35.294-1.468-48.23z" p-id="13924"></path></svg>