<?xml version="1.0" standalone="no"?><!DOCTYPE svg PUBLIC "-//W3C//DTD SVG 1.1//EN" "http://www.w3.org/Graphics/SVG/1.1/DTD/svg11.dtd"><svg t="1501759461168" class="icon" style="" viewBox="0 0 1024 1024" version="1.1" xmlns="http://www.w3.org/2000/svg" p-id="15397" xmlns:xlink="http://www.w3.org/1999/xlink" width="200" height="200"><defs><style type="text/css"></style></defs><path d="M231.040 819.2h325.76c30.72 0 30.72 0.213 45.44 11.093s182.827 125.44 182.827 125.44v-136.533h7.893c90.027 0 162.773-67.84 162.773-152.32v-445.653c0-84.48-72.96-152.96-162.773-152.96h-561.92c-89.813 0-162.773 68.48-162.773 152.96v445.653c0 84.48 72.96 152.32 162.773 152.32zM717.013 375.467c37.76 0 68.267 30.507 68.267 68.267s-30.507 68.267-68.267 68.267c-37.76 0-68.267-30.507-68.267-68.267 0-37.76 30.507-68.267 68.267-68.267zM512.213 375.467c37.76 0 68.267 30.507 68.267 68.267s-30.507 68.267-68.267 68.267c-37.76 0-68.267-30.507-68.267-68.267 0-37.76 30.507-68.267 68.267-68.267zM307.413 375.467c37.76 0 68.267 30.507 68.267 68.267s-30.507 68.267-68.267 68.267c-37.76 0-68.267-30.507-68.267-68.267 0-37.76 30.507-68.267 68.267-68.267z" p-id="15398"></path></svg>