<?xml version="1.0" standalone="no"?><!DOCTYPE svg PUBLIC "-//W3C//DTD SVG 1.1//EN" "http://www.w3.org/Graphics/SVG/1.1/DTD/svg11.dtd"><svg t="1501759421601" class="icon" style="" viewBox="0 0 1024 1024" version="1.1" xmlns="http://www.w3.org/2000/svg" p-id="15152" xmlns:xlink="http://www.w3.org/1999/xlink" width="200" height="200"><defs><style type="text/css"></style></defs><path d="M512 924.587c61.653 0 120.32-12.16 173.44-33.92 1.28-0.64 2.347-1.067 3.627-1.493 0.213 0 0.427 0 0.427-0.213 7.467-2.773 15.573-4.267 23.893-4.267 9.173 0 17.92 1.707 25.813 5.12l179.2 65.92-47.147-188.587c0-11.307 3.2-21.973 8.32-31.147 0 0 0 0 0 0 1.707-2.773 3.413-5.547 5.333-7.893 44.587-66.773 70.4-146.133 70.4-231.253 0.427-236.8-198.187-428.587-443.307-428.587-245.12 0-443.733 191.787-443.733 428.16 0 236.587 198.613 428.16 443.733 428.16zM716.8 443.733c37.76 0 68.267 30.507 68.267 68.267s-30.507 68.267-68.267 68.267c-37.76 0-68.267-30.507-68.267-68.267 0-37.76 30.507-68.267 68.267-68.267zM512 443.733c37.76 0 68.267 30.507 68.267 68.267s-30.507 68.267-68.267 68.267c-37.76 0-68.267-30.507-68.267-68.267 0-37.76 30.507-68.267 68.267-68.267zM307.2 443.733c37.76 0 68.267 30.507 68.267 68.267s-30.507 68.267-68.267 68.267c-37.76 0-68.267-30.507-68.267-68.267 0-37.76 30.507-68.267 68.267-68.267z" p-id="15153"></path></svg>