<?xml version="1.0" standalone="no"?><!DOCTYPE svg PUBLIC "-//W3C//DTD SVG 1.1//EN" "http://www.w3.org/Graphics/SVG/1.1/DTD/svg11.dtd"><svg t="1501759471936" class="icon" style="" viewBox="0 0 1024 1024" version="1.1" xmlns="http://www.w3.org/2000/svg" p-id="15519" xmlns:xlink="http://www.w3.org/1999/xlink" width="200" height="200"><defs><style type="text/css"></style></defs><path d="M593.28 745.6c-5.547-3.84-15.36-9.6-37.333-9.6h-247.68c-74.027 0-137.6-55.68-137.6-126.293v-215.040h-3.84c-56.107 0-98.56 43.733-98.56 97.067v274.987c0 53.333 45.653 86.613 101.76 86.613h34.773v102.4l113.28-96c4.053-2.987 11.307-6.4 28.16-6.4h191.573c49.067 0 101.12-24.32 110.72-68.267l-55.253-39.467z" p-id="15520"></path><path d="M821.333 68.267h-463.573c-74.027 0-118.827 57.173-118.827 127.573v358.827c0 70.613 59.733 128 133.76 128h215.68c22.187 0 32 4.907 37.333 8.96l159.36 127.573v-136.533h36.267c74.24 0 134.4-57.387 134.4-127.787v-359.040c0-70.4-60.16-127.573-134.4-127.573z" p-id="15521"></path></svg>