<?xml version="1.0" standalone="no"?><!DOCTYPE svg PUBLIC "-//W3C//DTD SVG 1.1//EN" "http://www.w3.org/Graphics/SVG/1.1/DTD/svg11.dtd"><svg t="1501759830242" class="icon" style="" viewBox="0 0 1024 1024" version="1.1" xmlns="http://www.w3.org/2000/svg" p-id="18708" xmlns:xlink="http://www.w3.org/1999/xlink" width="200" height="200"><defs><style type="text/css"></style></defs><path d="M900.359 681.909c-60.679 0-118.945-9.718-172.325-26.69-16.996-4.861-36.409-2.442-48.542 12.135l-106.813 106.787c-138.358-70.379-250.002-182.045-320.403-320.405l106.813-106.785c12.133-12.135 16.98-31.549 12.133-48.544-19.426-55.822-29.132-114.087-29.132-174.769 0-26.69-21.843-48.544-48.544-48.544h-169.909c-26.702 0-48.544 21.855-48.544 48.544 0 456.319 368.949 825.269 825.266 825.269 26.692 0 48.547-21.855 48.547-48.544v-169.909c0-26.69-21.855-48.544-48.547-48.544z" p-id="18709"></path></svg>