<?xml version="1.0" standalone="no"?><!DOCTYPE svg PUBLIC "-//W3C//DTD SVG 1.1//EN" "http://www.w3.org/Graphics/SVG/1.1/DTD/svg11.dtd"><svg t="1501759824002" class="icon" style="" viewBox="0 0 1024 1024" version="1.1" xmlns="http://www.w3.org/2000/svg" p-id="18585" xmlns:xlink="http://www.w3.org/1999/xlink" width="200" height="200"><defs><style type="text/css"></style></defs><path d="M512 560m-126 0a63 63 0 1 0 252 0 63 63 0 1 0-252 0Z" p-id="18586"></path><path d="M880 192l-176 0-64-64L384 128l-64 64L144 192c-44.184 0-80 35.816-80 80l0 544c0 44.184 35.816 80 80 80l736 0c44.184 0 80-35.816 80-80L960 272C960 227.816 924.184 192 880 192zM512 784c-123.71 0-224-100.29-224-224s100.29-224 224-224 224 100.29 224 224S635.71 784 512 784z" p-id="18587"></path></svg>