<?xml version="1.0" standalone="no"?><!DOCTYPE svg PUBLIC "-//W3C//DTD SVG 1.1//EN" "http://www.w3.org/Graphics/SVG/1.1/DTD/svg11.dtd"><svg t="1501759499317" class="icon" style="" viewBox="0 0 1024 1024" version="1.1" xmlns="http://www.w3.org/2000/svg" p-id="15642" xmlns:xlink="http://www.w3.org/1999/xlink" width="200" height="200"><defs><style type="text/css"></style></defs><path d="M884.053 258.134h-144l-86.187-87.040c0 0-0.427-0.427-0.64-0.427l-0.427-0.427c-12.8-12.8-30.080-20.907-49.707-20.907h-179.2c-20.907 0-39.467 8.96-52.48 23.253v0.213l-84.267 85.333h-147.2c-39.68 0-71.68 31.147-71.68 70.827v431.147c0 39.68 32 71.893 71.68 71.893h744.107c39.467 0 71.68-32.213 71.68-71.893v-431.147c0-39.68-32.213-70.827-71.68-70.827zM512 724.267c-108.587 0-197.12-88.747-197.12-197.547 0-109.013 88.533-197.547 197.12-197.547 108.8 0 197.12 88.533 197.12 197.547 0 108.8-88.32 197.547-197.12 197.547zM870.613 372.267c-16.427 0-29.867-13.44-29.867-30.080s13.44-30.080 29.867-30.080c16.427 0 29.867 13.44 29.867 30.080s-13.44 30.080-29.867 30.080z" p-id="15643"></path><path d="M512 377.387c-82.347 0-148.907 66.773-148.907 149.333 0 82.347 66.56 149.333 148.907 149.333 82.133 0 148.907-66.773 148.907-149.333 0-82.56-66.773-149.333-148.907-149.333z" p-id="15644"></path></svg>