<?xml version="1.0" standalone="no"?><!DOCTYPE svg PUBLIC "-//W3C//DTD SVG 1.1//EN" "http://www.w3.org/Graphics/SVG/1.1/DTD/svg11.dtd"><svg t="1501759740281" class="icon" style="" viewBox="0 0 1024 1024" version="1.1" xmlns="http://www.w3.org/2000/svg" p-id="17483" xmlns:xlink="http://www.w3.org/1999/xlink" width="200" height="200"><defs><style type="text/css"></style></defs><path d="M711.68 102.4c-77.653 0-150.865 35.716-199.68 93.754-48.817-58.037-122.027-93.754-199.68-93.754-137.562 0-244.053 107.138-244.053 245.536 0 169.634 150.865 305.809 379.383 515.614l64.35 58.050 64.35-58.050c228.516-209.807 379.383-345.982 379.383-515.614 0-138.398-106.492-245.536-244.053-245.536zM539.383 804.815l-9.001 8.262-18.383 16.582-18.381-16.58-8.99-8.254c-107.558-98.735-200.45-184.009-261.858-260.254-59.642-74.054-86.238-134.699-86.238-196.636 0-48.779 17.967-93.719 50.592-126.541 32.516-32.713 76.977-50.729 125.195-50.729 55.753 0 110.869 25.956 147.435 69.429l52.245 62.114 52.243-62.114c36.567-43.473 91.682-69.429 147.437-69.429 48.22 0 92.678 18.016 125.197 50.726 32.623 32.823 50.59 77.762 50.59 126.543 0 61.937-26.596 122.579-86.234 196.631-61.406 76.245-154.293 161.513-261.85 260.247z" p-id="17484"></path></svg>