<?xml version="1.0" standalone="no"?><!DOCTYPE svg PUBLIC "-//W3C//DTD SVG 1.1//EN" "http://www.w3.org/Graphics/SVG/1.1/DTD/svg11.dtd"><svg t="1501758889082" class="icon" style="" viewBox="0 0 1024 1024" version="1.1" xmlns="http://www.w3.org/2000/svg" p-id="9901" xmlns:xlink="http://www.w3.org/1999/xlink" width="200" height="200"><defs><style type="text/css"></style></defs><path d="M589.807 1013.589c-6.014 0-12.042-1.396-17.58-4.208l-155.376-78.885c-12.713-6.556-21.254-19.595-21.254-34.628 0 0 0 0 0 0v-404.086l-304.503-304.505c-7.028-7.028-11.374-16.737-11.374-27.46 0-21.449 17.387-38.836 38.834-38.836h777.763c21.449 0 38.834 17.388 38.834 38.836 0 10.723-4.348 20.432-11.374 27.46l-295.134 295.135v492.341c0 0.001 0 0.002 0 0.003 0 21.446-17.387 38.832-38.832 38.832-0.001 0-0.003 0-0.004 0zM473.269 872.028l77.702 39.452v-445.155c0 0 0-0.001 0-0.001 0-10.723 4.348-20.432 11.376-27.459l240.211-240.212h-590.245l249.581 249.581c7.028 7.028 11.376 16.737 11.376 27.462v396.335z" fill="" p-id="9902"></path></svg>