<?xml version="1.0" standalone="no"?><!DOCTYPE svg PUBLIC "-//W3C//DTD SVG 1.1//EN" "http://www.w3.org/Graphics/SVG/1.1/DTD/svg11.dtd"><svg t="1501759787820" class="icon" style="" viewBox="0 0 1024 1024" version="1.1" xmlns="http://www.w3.org/2000/svg" p-id="18218" xmlns:xlink="http://www.w3.org/1999/xlink" width="200" height="200"><defs><style type="text/css"></style></defs><path d="M682.849 699.062c-50.417 28.658-108.719 45.018-170.858 45.018-62.127 0-120.42-16.343-170.833-44.99-133.734 40.812-235.886 131.488-266.065 249.818h873.813c-30.162-118.329-132.315-209.053-266.058-249.844z" p-id="18219"></path><path d="M511.99 75.093c-165.822 0-300.249 134.547-300.249 300.403 0 165.858 134.427 300.309 300.249 300.309s300.249-134.451 300.249-300.309c0-165.856-134.427-300.403-300.249-300.403zM511.99 600.715c-95.477 0-177.068-59.133-209.827-143.328h419.653c-32.758 84.195-114.351 143.328-209.827 143.328z" p-id="18220"></path></svg>