<?xml version="1.0" standalone="no"?><!DOCTYPE svg PUBLIC "-//W3C//DTD SVG 1.1//EN" "http://www.w3.org/Graphics/SVG/1.1/DTD/svg11.dtd"><svg t="1501758804128" class="icon" style="" viewBox="0 0 1024 1024" version="1.1" xmlns="http://www.w3.org/2000/svg" p-id="9016" xmlns:xlink="http://www.w3.org/1999/xlink" width="200" height="200"><defs><style type="text/css"></style></defs><path d="M989.867 218.934c0 37.683-30.583 68.267-68.267 68.267h-819.2c-37.683 0-68.267-30.583-68.267-68.267v0c0-37.683 30.583-68.267 68.267-68.267h819.2c37.683 0 68.267 30.583 68.267 68.267v0z" p-id="9017"></path><path d="M716.8 492c0 37.683-30.583 68.267-68.267 68.267h-546.133c-37.683 0-68.267-30.583-68.267-68.267v0c0-37.683 30.583-68.267 68.267-68.267h546.133c37.683 0 68.267 30.583 68.267 68.267v0z" p-id="9018"></path><path d="M512 765.067c0 37.683-30.583 68.267-68.267 68.267h-341.333c-37.683 0-68.267-30.583-68.267-68.267v0c0-37.683 30.583-68.267 68.267-68.267h341.333c37.683 0 68.267 30.583 68.267 68.267v0z" p-id="9019"></path></svg>