<?xml version="1.0" standalone="no"?><!DOCTYPE svg PUBLIC "-//W3C//DTD SVG 1.1//EN" "http://www.w3.org/Graphics/SVG/1.1/DTD/svg11.dtd"><svg t="1501759607275" class="icon" style="" viewBox="0 0 1024 1024" version="1.1" xmlns="http://www.w3.org/2000/svg" p-id="16865" xmlns:xlink="http://www.w3.org/1999/xlink" width="200" height="200"><defs><style type="text/css"></style></defs><path d="M238.933 420.978c-50.067 0-91.022 40.956-91.022 91.022s40.956 91.022 91.022 91.022 91.022-40.956 91.022-91.022-40.956-91.022-91.022-91.022zM785.067 420.978c-50.067 0-91.022 40.956-91.022 91.022s40.956 91.022 91.022 91.022 91.022-40.956 91.022-91.022-40.956-91.022-91.022-91.022zM512 420.978c-50.067 0-91.022 40.956-91.022 91.022s40.956 91.022 91.022 91.022 91.022-40.956 91.022-91.022-40.956-91.022-91.022-91.022z" p-id="16866"></path></svg>