<?xml version="1.0" standalone="no"?><!DOCTYPE svg PUBLIC "-//W3C//DTD SVG 1.1//EN" "http://www.w3.org/Graphics/SVG/1.1/DTD/svg11.dtd"><svg t="1501759526062" class="icon" style="" viewBox="0 0 1024 1024" version="1.1" xmlns="http://www.w3.org/2000/svg" p-id="15889" xmlns:xlink="http://www.w3.org/1999/xlink" width="200" height="200"><defs><style type="text/css"></style></defs><path d="M800 64 224 64c-17.6 0-32 14.4-32 32l0 832c0 17.6 14.4 32 32 32l576 0c17.6 0 32-14.4 32-32L832 96C832 78.4 817.6 64 800 64zM288 416l64 0 0 64-64 0L288 416zM288 544l64 0 0 64-64 0L288 544zM288 672l64 0 0 64-64 0L288 672zM480 864l-192 0 0-64 192 0L480 864zM480 736l-64 0 0-64 64 0L480 736zM480 608l-64 0 0-64 64 0L480 608zM480 480l-64 0 0-64 64 0L480 480zM608 864l-64 0 0-64 64 0L608 864zM608 736l-64 0 0-64 64 0L608 736zM608 608l-64 0 0-64 64 0L608 608zM608 480l-64 0 0-64 64 0L608 480zM736 864l-64 0 0-192 64 0L736 864zM736 608l-64 0 0-64 64 0L736 608zM736 480l-64 0 0-64 64 0L736 480zM736 320 288 320 288 160l448 0L736 320z" p-id="15890"></path></svg>