<?xml version="1.0" standalone="no"?><!DOCTYPE svg PUBLIC "-//W3C//DTD SVG 1.1//EN" "http://www.w3.org/Graphics/SVG/1.1/DTD/svg11.dtd"><svg t="1501759699529" class="icon" style="" viewBox="0 0 1024 1024" version="1.1" xmlns="http://www.w3.org/2000/svg" p-id="17231" xmlns:xlink="http://www.w3.org/1999/xlink" width="200" height="200"><defs><style type="text/css"></style></defs><path d="M64 768l544 0 0 64-544 0 0-64Z" p-id="17232"></path><path d="M800 768l160 0 0 64-160 0 0-64Z" p-id="17233"></path><path d="M768 895c0 35.898-28.654 65-64 65l0 0c-35.346 0-64-29.102-64-65l0-190c0-35.898 28.654-65 64-65l0 0c35.346 0 64 29.102 64 65L768 895z" p-id="17234"></path><path d="M64 480l160 0 0 64-160 0 0-64Z" p-id="17235"></path><path d="M416 480l544 0 0 64-544 0 0-64Z" p-id="17236"></path><path d="M384 607c0 35.898-28.654 65-64 65l0 0c-35.346 0-64-29.102-64-65l0-190c0-35.898 28.654-65 64-65l0 0c35.346 0 64 29.102 64 65L384 607z" p-id="17237"></path><path d="M64 192l544 0 0 64-544 0 0-64Z" p-id="17238"></path><path d="M800 192l160 0 0 64-160 0 0-64Z" p-id="17239"></path><path d="M768 319c0 35.898-28.654 65-64 65l0 0c-35.346 0-64-29.102-64-65l0-190c0-35.898 28.654-65 64-65l0 0c35.346 0 64 29.102 64 65L768 319z" p-id="17240"></path></svg>