<?xml version="1.0" standalone="no"?><!DOCTYPE svg PUBLIC "-//W3C//DTD SVG 1.1//EN" "http://www.w3.org/Graphics/SVG/1.1/DTD/svg11.dtd"><svg t="1501752361990" class="icon" style="" viewBox="0 0 1308 1024" version="1.1" xmlns="http://www.w3.org/2000/svg" p-id="8647" xmlns:xlink="http://www.w3.org/1999/xlink" width="255.46875" height="200"><defs><style type="text/css"></style></defs><path d="M962.6 801.2c-21.399 0-42.2 8.5-57.3 23.5-15.051 14.95-23.649 35.751-23.649 56.901 0 21.15 8.6 41.9 23.649 56.901 14.726 14.488 34.943 23.434 57.25 23.434 22.307 0 42.524-8.946 57.261-23.444 15.039-14.989 23.789-35.739 23.789-56.889-0.255-44.458-36.355-80.4-80.849-80.4-0.053 0-0.106 0-0.159 0M515.55 801.2c-21.3 0-42.25 8.5-57.3 23.5-15.051 14.95-23.649 35.751-23.649 56.901 0 21.15 8.6 41.9 23.649 56.901 14.726 14.488 34.943 23.434 57.25 23.434 22.307 0 42.524-8.946 57.261-23.444 15.039-14.989 23.739-35.739 23.739-56.889-0.256-44.458-36.355-80.4-80.849-80.4-0.036 0-0.071 0-0.106 0M1205.75 264.701l-133.15 420.75c-9.4 29.499-36.6 49.2-67.8 49.2h-514.599c-29.499 0-58.299-18.249-68.601-45.75l-196.050-527.25h-113.7c-27.491-0.056-49.764-22.313-49.85-49.792 0.085-27.505 22.353-49.774 49.842-49.858h148.108c20.7 0 39.399 14.25 46.75 33.501l203.35 539.5h473.75l106.5-336.3h-587.3c-27.487-0.085-49.744-22.359-49.8-49.844 0.085-27.485 22.325-49.743 49.789-49.855h655.161c27.587 0.64 49.705 23.155 49.705 50.837 0 5.285-0.806 10.382-2.302 15.173z" fill="#2c2c2c" p-id="8648"></path></svg>