<?xml version="1.0" standalone="no"?><!DOCTYPE svg PUBLIC "-//W3C//DTD SVG 1.1//EN" "http://www.w3.org/Graphics/SVG/1.1/DTD/svg11.dtd"><svg t="1501759350635" class="icon" style="" viewBox="0 0 1024 1024" version="1.1" xmlns="http://www.w3.org/2000/svg" p-id="14166" xmlns:xlink="http://www.w3.org/1999/xlink" width="200" height="200"><defs><style type="text/css"></style></defs><path d="M608.6 602c0 0-10.8-56-14.6-180-3.8-124-18-285-18-285-5-56-23.6-73-64-73-18.8 0-41 4.6-46.6 6.6-18.8 7.2-17.4 23.2-17.4 45l0 35.6c0 6.4 2.4 12 6.4 16.4l1.6 1.6 8.2 8.2c0.8 0.6 0.2 1.4 0.8 2 3.8 4.4 6.2 10 6.2 16.2l0 49c0 6.4-2.4 6.4-6.4 10.6-0.4 0.6-1 1.2-1.6 1.6l-8.8 8.8c-0.2 0.2-0.6 0.6-0.8 0.8-4.2 4.4-6.8 10.4-6.8 16.8l0 14.4c0 6.2 2.2 11.8 6.2 16.2 0 0 0.2 0.2 0.2 0.2l1.6 1.6c0 0 0.2 0.2 0.2 0.2l8 8c0.8 0.6 1.4 1.4 2 2 3.8 4.4 6.2 10 6.2 16.2 0 1.4-0.2 16.2-0.4 17.6-0.8 4.6-3 8.8-6 12.2-0.4 0.6-1 1.2-1.6 1.6l-7.8 7.8-2.8 3c-1 1.2-1.4 2.6-2.2 4.2-1.8 3.4-2.4 7.4-2.4 11.8l0 15.6c0 5.8-0.2 11.4-0.4 17.2 0.4 4.8 14.4 11.4 14.4 21l0 40.8c0 12.4-21 14-22 22.6-9.4 50.8-23.8 83.6-23.8 83.6-57.4 33.2-96 95.2-96 166.4 0 106 86 192 192 192s192-86 192-192C704 697.2 665.6 635.4 608.6 602zM512 896c-35.4 0-64-28.6-64-64s28.6-64 64-64 64 28.6 64 64S547.4 896 512 896z" p-id="14167"></path></svg>