<?xml version="1.0" standalone="no"?><!DOCTYPE svg PUBLIC "-//W3C//DTD SVG 1.1//EN" "http://www.w3.org/Graphics/SVG/1.1/DTD/svg11.dtd"><svg t="1501759334809" class="icon" style="" viewBox="0 0 1024 1024" version="1.1" xmlns="http://www.w3.org/2000/svg" p-id="14044" xmlns:xlink="http://www.w3.org/1999/xlink" width="200" height="200"><defs><style type="text/css"></style></defs><path d="M172.8 960l678.4 0c24.6 0 44.8-19.8 44.8-44.2L896 492c0-24.4-20-44-44.8-44L808 448l0-61.8c0-83-32.4-175.2-85.2-230.8C670.2 99.8 594.8 64 512.2 64c-0.2 0-0.2 0-0.2 0 0 0-0.2 0-0.2 0-82.6 0-158 35.8-210.6 91.2-52.8 55.6-85.2 147.8-85.2 230.8L216 448 178 448l-5.2 0C148 448 128 467.8 128 492l0 423.8C128 940.2 148 960 172.8 960zM322 386.2c0-54.6 19.8-122.2 56.2-160.6l0 0 0-0.6C413.4 187.8 462 166 511.8 166l0.2 0 0.2 0c49.8 0 98.4 21.8 133.6 59l0 0.4-0.2 0.2c36.6 38.4 56.2 106 56.2 160.6L701.8 448l-35 0-310 0L322 448 322 386.2z" p-id="14045"></path></svg>