<?xml version="1.0" standalone="no"?><!DOCTYPE svg PUBLIC "-//W3C//DTD SVG 1.1//EN" "http://www.w3.org/Graphics/SVG/1.1/DTD/svg11.dtd"><svg t="1501759048588" class="icon" style="" viewBox="0 0 1024 1024" version="1.1" xmlns="http://www.w3.org/2000/svg" p-id="11632" xmlns:xlink="http://www.w3.org/1999/xlink" width="200" height="200"><defs><style type="text/css"></style></defs><path d="M980.765 404.196l-411.875-325.405c-31.858-25.031-81.92-25.031-113.778 0l-411.875 325.405c-6.827 6.827-11.378 15.929-6.827 25.031s11.378 15.929 20.48 15.929h47.787v400.498c0 45.511 34.133 77.369 79.645 77.369h238.933c13.653 0 22.755-9.102 22.755-22.755v-163.84c0-34.133 29.582-63.715 65.991-63.715h4.551c36.409 0 65.991 29.582 65.991 63.715v163.84c0 13.653 9.102 22.755 22.755 22.755h241.209c45.511 0 75.093-31.858 75.093-77.369v-400.498h45.511c9.102 0 18.205-6.827 20.48-15.929s2.275-18.205-6.827-25.031z" fill="#666666" p-id="11633"></path></svg>