<?xml version="1.0" standalone="no"?><!DOCTYPE svg PUBLIC "-//W3C//DTD SVG 1.1//EN" "http://www.w3.org/Graphics/SVG/1.1/DTD/svg11.dtd"><svg t="1501759061558" class="icon" style="" viewBox="0 0 1024 1024" version="1.1" xmlns="http://www.w3.org/2000/svg" p-id="11758" xmlns:xlink="http://www.w3.org/1999/xlink" width="200" height="200"><defs><style type="text/css"></style></defs><path d="M980.765 420.22l-411.875-327.68c-31.858-25.031-81.92-25.031-113.778 0l-411.875 327.68c-9.102 6.827-11.378 22.755-4.551 31.858 6.827 9.102 22.755 11.378 31.858 4.551l411.875-329.955c15.929-11.378 43.235-11.378 56.889 0l411.875 327.68c6.827 4.551 11.378 4.551 15.929 4.551 6.827 0 13.653-2.275 18.205-9.102 6.827-9.102 6.827-22.755-4.551-29.582zM898.845 504.415c-13.653 0-22.755 9.102-22.755 22.755v332.231c0 20.48-9.102 31.858-29.582 31.858h-218.453v-141.085c0-61.44-50.062-109.227-111.502-109.227h-4.551c-61.44 0-111.502 50.062-111.502 109.227v141.085h-218.453c-20.48 0-34.133-11.378-34.133-31.858v-332.231c0-13.653-9.102-22.755-22.755-22.755s-22.755 9.102-22.755 22.755v332.231c0 45.511 34.133 77.369 79.645 77.369h241.209c13.653 0 22.755-9.102 22.755-22.755v-163.84c0-34.133 29.582-63.715 65.991-63.715h4.551c36.409 0 65.991 29.582 65.991 63.715v163.84c0 13.653 9.102 22.755 22.755 22.755h241.209c45.511 0 75.093-31.858 75.093-77.369v-332.231c0-11.378-9.102-22.755-22.755-22.755z" p-id="11759"></path></svg>